<svg xmlns="http://www.w3.org/2000/svg" width="1200" height="130" viewBox="0 0 1200 130">
<title>The Studio section band</title>
<defs><linearGradient id="stCy" x1="0" y1="0" x2="1" y2="1"><stop offset="0" stop-color="#47d1ff"/><stop offset="1" stop-color="#1273ea"/></linearGradient><linearGradient id="stVi" x1="0" y1="0" x2="1" y2="1"><stop offset="0" stop-color="#a855f7"/><stop offset="1" stop-color="#6d28d9"/></linearGradient><linearGradient id="stMark" gradientUnits="objectBoundingBox" x1="0" y1="0" x2="1" y2="1"><stop offset="0" stop-color="#f4f6fb"><animate attributeName="stop-color" values="#f4f6fb;#e9d8ff;#d8f4ff;#ffe4f2;#f4f6fb" dur="34s" repeatCount="indefinite"/></stop><stop offset="0.45" stop-color="#a855f7"><animate attributeName="stop-color" values="#a855f7;#47d1ff;#ff2e4d;#8b5cff;#a855f7" dur="34s" repeatCount="indefinite"/></stop><stop offset="1" stop-color="#6d28d9"><animate attributeName="stop-color" values="#6d28d9;#1273ea;#a02bfe;#0ea5b7;#6d28d9" dur="34s" repeatCount="indefinite"/></stop><animateTransform attributeName="gradientTransform" type="rotate" values="0 0.5 0.5; 360 0.5 0.5" dur="41s" repeatCount="indefinite"/></linearGradient><linearGradient id="stWord" x1="0" y1="0" x2="1" y2="0"><stop offset="0" stop-color="#a855f7"><animate attributeName="stop-color" values="#a855f7;#8b5cff;#47d1ff;#a855f7" dur="11s" repeatCount="indefinite"/></stop><stop offset="0.5" stop-color="#c9a6ff"><animate attributeName="stop-color" values="#c9a6ff;#7fe3ff;#c9a6ff;#c9a6ff" dur="11s" repeatCount="indefinite"/></stop><stop offset="1" stop-color="#8b5cff"><animate attributeName="stop-color" values="#8b5cff;#47d1ff;#a855f7;#8b5cff" dur="11s" repeatCount="indefinite"/></stop><animateTransform attributeName="gradientTransform" type="rotate" values="0 0.5 0.5; 360 0.5 0.5" dur="29s" repeatCount="indefinite"/></linearGradient><radialGradient id="stTop" cx="0.5" cy="0" r="1"><stop offset="0" stop-color="#ffffff" stop-opacity="0.075"/><stop offset="1" stop-color="#ffffff" stop-opacity="0"/></radialGradient><pattern id="stDotsFine" width="16" height="16" patternUnits="userSpaceOnUse"><circle cx="4" cy="4" r="0.8" fill="#9aa8c4" opacity="0.07"/></pattern><linearGradient id="stMaskH" x1="0" y1="0" x2="1" y2="0"><stop offset="0" stop-color="#000000"/><stop offset="0.34" stop-color="#3a3a3a"/><stop offset="0.72" stop-color="#c8c8c8"/><stop offset="1" stop-color="#ffffff"/></linearGradient><mask id="stFadeR" maskContentUnits="objectBoundingBox"><rect x="0" y="0" width="1" height="1" fill="url(#stMaskH)"/></mask>
<clipPath id="stClip"><rect x="0" y="0" width="1200" height="130" rx="14"/></clipPath>
<mask id="ringStudio" maskUnits="userSpaceOnUse" x="-200" y="-300" width="900" height="1000"><rect x="-200" y="-300" width="900" height="1000" fill="#fff"/><path d="M 182 339 L 245 120 L 301 27 L 362 25 L 348 121 Z" fill="#000" stroke="#000" stroke-width="26" stroke-linejoin="round" stroke-linecap="round"/></mask><mask id="eyeStudio" maskUnits="userSpaceOnUse" x="-200" y="-300" width="900" height="1000"><rect x="-200" y="-300" width="900" height="1000" fill="#fff"/><circle cx="250.25" cy="180" r="32" fill="#000"/><circle cx="271.463" cy="158.787" r="13" fill="#fff"/></mask>
</defs>
<rect x="0" y="0" width="1200" height="130" rx="14" fill="#050506"/>
<g clip-path="url(#stClip)">
<rect x="0" y="0" width="1200" height="80" fill="url(#stTop)"/>
<rect x="600" y="0" width="600" height="130" fill="url(#stDotsFine)" mask="url(#stFadeR)"/>
<rect x="0" y="0" width="5" height="130" fill="url(#stVi)"/>
<!-- ghost mark, identical placement in all five bands. Dynamic brand gradient, slowed so it does not compete with the headline. -->
<g transform="translate(1000,-30) scale(0.52)" fill="url(#stMark)" opacity="0.06"><g mask="url(#eyeStudio)"><g mask="url(#ringStudio)"><path d="M 357.25 180 A 107 107 0 1 1 143.25 180 A 107 107 0 1 1 357.25 180 Z M 335.25 180 A 85 85 0 1 0 165.25 180 A 85 85 0 1 0 335.25 180 Z" fill-rule="evenodd"/></g><path d="M 262.192 233.688 A 55 55 0 1 1 305.18 177.233 Z M 303.717 26.911 L 352.194 25.322 A 5 5 0 0 1 356.497 33.123 L 302.934 112.193 A 4 4 0 0 0 306.001 118.429 L 338.656 120.428 A 5 5 0 0 1 342.329 128.448 L 187.648 331.582 A 1.2 1.2 0 0 1 185.586 330.394 L 226.864 231.326 A 3 3 0 0 0 227.056 230.652 L 244.876 120.762 A 4 4 0 0 1 245.398 119.339 L 299.598 29.329 A 5 5 0 0 1 303.717 26.911 Z M 32.49 96 L 155.8 96 A 4.5 4.5 0 0 1 159.459 103.119 L 144.433 124.119 A 4.5 4.5 0 0 1 140.773 126 L 51.163 126 A 4.5 4.5 0 0 1 47.649 124.311 L 29.679 101.849 A 3.6 3.6 0 0 1 32.49 96 Z M 449.337 126 L 359.727 126 A 4.5 4.5 0 0 1 356.067 124.119 L 341.041 103.119 A 4.5 4.5 0 0 1 344.7 96 L 468.01 96 A 3.6 3.6 0 0 1 470.821 101.849 L 452.851 124.311 A 4.5 4.5 0 0 1 449.337 126 Z M 63.49 144.5 L 130.266 144.5 A 4.5 4.5 0 0 1 134.699 149.775 L 131.027 170.775 A 4.5 4.5 0 0 1 126.595 174.5 L 82.163 174.5 A 4.5 4.5 0 0 1 78.649 172.811 L 60.679 150.349 A 3.6 3.6 0 0 1 63.49 144.5 Z M 418.337 174.5 L 373.905 174.5 A 4.5 4.5 0 0 1 369.473 170.775 L 365.801 149.775 A 4.5 4.5 0 0 1 370.234 144.5 L 437.01 144.5 A 3.6 3.6 0 0 1 439.821 150.349 L 421.851 172.811 A 4.5 4.5 0 0 1 418.337 174.5 Z M 94.49 193 L 127.416 193 A 4.5 4.5 0 0 1 131.789 196.441 L 136.873 217.441 A 4.5 4.5 0 0 1 132.499 223 L 113.163 223 A 4.5 4.5 0 0 1 109.649 221.311 L 91.679 198.849 A 3.6 3.6 0 0 1 94.49 193 Z M 387.337 223 L 368.001 223 A 4.5 4.5 0 0 1 363.627 217.441 L 368.711 196.441 A 4.5 4.5 0 0 1 373.084 193 L 406.01 193 A 3.6 3.6 0 0 1 408.821 198.849 L 390.851 221.311 A 4.5 4.5 0 0 1 387.337 223 Z"/></g></g>
<!-- LAYER 1: far. Widest orbit extent about 24 px, clockwise, 29s. -->
<g><animateMotion dur="29s" repeatCount="indefinite" path="M0,0 C 8,-5 17,-4 20,2 C 23,8 16,13 8,12 C 0,11 -4,7 -2,3 C -1,1.5 -0.6,0.6 0,0 Z"/><g transform="translate(130.7,2.9)"><animateMotion dur="11s" begin="0.6s" repeatCount="indefinite" path="M0,0 C 4,-3 8,0 7,4 C 6,8 1,9 -3,7 C -7,5 -6,1 0,0 Z"/><path d="M-3.3 0H3.3M0 -3.3V3.3" stroke="#6ea8dc" stroke-width="1.8" stroke-linecap="round" opacity="0.37"/></g><path d="M743.5 38.1H749.9M746.7 34.9V41.3" stroke="#3b82f6" stroke-width="1.7" stroke-linecap="round" opacity="0.35"><animate attributeName="opacity" values="0.35;0.13;0.35" dur="3.2s" begin="5.0s" repeatCount="indefinite"/></path><path d="M46.5 110.0H53.1M49.8 106.7V113.3" stroke="#8b5cff" stroke-width="1.8" stroke-linecap="round" opacity="0.37"><animate attributeName="opacity" values="0.37;0.13;0.37" dur="5.1s" begin="3.7s" repeatCount="indefinite"/></path><path d="M924.7 65.5H930.7M927.7 62.5V68.5" stroke="#6ea8dc" stroke-width="1.6" stroke-linecap="round" opacity="0.25"/><path d="M66.8 124.4H73.4M70.1 121.1V127.7" stroke="#8b5cff" stroke-width="1.7" stroke-linecap="round" opacity="0.34"/><g transform="translate(824.3,87.0)"><animateMotion dur="9s" begin="3.4s" repeatCount="indefinite" path="M0,0 C -3.5,-2.5 -8,-1 -8,3 C -8,7 -3,9 1,7 C 5,5 4,1 0,0 Z"/><g><animateTransform attributeName="transform" type="rotate" values="0;360" dur="24s" repeatCount="indefinite"/><path d="M-3.4 0H3.4M0 -3.4V3.4" stroke="#3b82f6" stroke-width="1.8" stroke-linecap="round" opacity="0.38"/></g></g><path d="M636.2 5.8H642.4M639.3 2.7V8.9" stroke="#6ea8dc" stroke-width="1.6" stroke-linecap="round" opacity="0.28"><animate attributeName="opacity" values="0.28;0.10;0.28" dur="5.1s" begin="0s" repeatCount="indefinite"/></path><path d="M568.5 123.8H575.3M571.9 120.4V127.2" stroke="#3b82f6" stroke-width="1.8" stroke-linecap="round" opacity="0.41"><animate attributeName="opacity" values="0.41;0.15;0.41" dur="4.6s" begin="1.8s" repeatCount="indefinite"/></path><path d="M752.2 29.9H758.8M755.5 26.6V33.2" stroke="#8b5cff" stroke-width="1.7" stroke-linecap="round" opacity="0.39"/><g transform="translate(325.1,112.7)"><animateMotion dur="12.5s" begin="7.2s" repeatCount="indefinite" path="M0,0 C 5,2 9,6 6,9 C 3,12 -2,10 -4,6 C -6,2 -3,-1 0,0 Z"/><path d="M-3.3 0H3.3M0 -3.3V3.3" stroke="#3b82f6" stroke-width="1.8" stroke-linecap="round" opacity="0.35"/></g><path d="M1152.3 63.2H1158.5M1155.4 60.1V66.3" stroke="#3b82f6" stroke-width="1.6" stroke-linecap="round" opacity="0.26"/><path d="M815.4 73.8H822.0M818.7 70.5V77.1" stroke="#3b82f6" stroke-width="1.8" stroke-linecap="round" opacity="0.38"/><path d="M1146.6 80.3H1153.2M1149.9 77.0V83.6" stroke="#1273ea" stroke-width="1.8" stroke-linecap="round" opacity="0.39"><animate attributeName="opacity" values="0.39;0.14;0.39" dur="3.2s" begin="1.3s" repeatCount="indefinite"/></path><g transform="translate(1014.7,63.5)"><animateMotion dur="8s" begin="5.1s" repeatCount="indefinite" path="M0,0 C -4,3 -9,2 -10,-2 C -11,-6 -6,-9 -2,-7 C 2,-5 2,-2 0,0 Z"/><g><animateTransform attributeName="transform" type="rotate" values="0;360" dur="27s" repeatCount="indefinite"/><path d="M-3.1 0H3.1M0 -3.1V3.1" stroke="#a855f7" stroke-width="1.7" stroke-linecap="round" opacity="0.31"/></g></g><path d="M844.3 39.4H850.5M847.4 36.3V42.5" stroke="#8b5cff" stroke-width="1.6" stroke-linecap="round" opacity="0.32"/><path d="M640.3 127.8H646.5M643.4 124.7V130.9" stroke="#6ea8dc" stroke-width="1.7" stroke-linecap="round" opacity="0.27"><animate attributeName="opacity" values="0.27;0.10;0.27" dur="4.6s" begin="4.2s" repeatCount="indefinite"/></path><path d="M126.7 115.6H133.3M130.0 112.3V118.9" stroke="#a855f7" stroke-width="1.8" stroke-linecap="round" opacity="0.37"><animate attributeName="opacity" values="0.37;0.13;0.37" dur="3.2s" begin="3.7s" repeatCount="indefinite"/></path></g>
<!-- LAYER 2: mid. Widest orbit extent about 30 px, counter clockwise, 21s. -->
<g><animateMotion dur="21s" repeatCount="indefinite" path="M0,0 C -10,6 -22,5 -26,-2 C -30,-9 -22,-17 -12,-16 C -2,-15 4,-9 3,-4 C 2.4,-1.6 1.2,-0.7 0,0 Z"/><path d="M586.3 11.5H593.9M590.1 7.7V15.3" stroke="#47d1ff" stroke-width="2.1" stroke-linecap="round" opacity="0.51"/><g transform="translate(638.2,49.4)"><animateMotion dur="7.5s" begin="1.9s" repeatCount="indefinite" path="M0,0 C 4,-3 8,0 7,4 C 6,8 1,9 -3,7 C -7,5 -6,1 0,0 Z"/><g><animateTransform attributeName="transform" type="rotate" values="0;360" dur="21s" repeatCount="indefinite"/><path d="M-4.2 0H4.2M0 -4.2V4.2" stroke="#47d1ff" stroke-width="2.2" stroke-linecap="round" opacity="0.61"/></g></g><g transform="translate(446.0,111.1)"><animateMotion dur="10.5s" begin="4.6s" repeatCount="indefinite" path="M0,0 C -3.5,-2.5 -8,-1 -8,3 C -8,7 -3,9 1,7 C 5,5 4,1 0,0 Z"/><path d="M-3.7 0H3.7M0 -3.7V3.7" stroke="#47d1ff" stroke-width="2.0" stroke-linecap="round" opacity="0.46"/></g><path d="M1014.4 122.5H1022.0M1018.2 118.7V126.3" stroke="#47d1ff" stroke-width="2.0" stroke-linecap="round" opacity="0.48"/><g transform="translate(1097.1,14.6)"><animateMotion dur="13s" begin="8.3s" repeatCount="indefinite" path="M0,0 C 5,2 9,6 6,9 C 3,12 -2,10 -4,6 C -6,2 -3,-1 0,0 Z"/><path d="M-3.6 0H3.6M0 -3.6V3.6" stroke="#34d399" stroke-width="1.9" stroke-linecap="round" opacity="0.45"><animate attributeName="opacity" values="0.45;0.16;0.45" dur="5.8s" begin="5.6s" repeatCount="indefinite"/></path></g><path d="M1016.2 111.1H1024.2M1020.2 107.1V115.1" stroke="#47d1ff" stroke-width="2.1" stroke-linecap="round" opacity="0.55"/><path d="M438.4 125.1H446.0M442.2 121.3V128.9" stroke="#34d399" stroke-width="2.0" stroke-linecap="round" opacity="0.47"><animate attributeName="opacity" values="0.47;0.17;0.47" dur="5.1s" begin="0.4s" repeatCount="indefinite"/></path><path d="M1014.5 102.6H1022.9M1018.7 98.4V106.8" stroke="#47d1ff" stroke-width="2.2" stroke-linecap="round" opacity="0.62"/><path d="M651.7 49.5H659.9M655.8 45.4V53.6" stroke="#a855f7" stroke-width="2.1" stroke-linecap="round" opacity="0.58"><animate attributeName="opacity" values="0.58;0.21;0.58" dur="7.5s" begin="3.7s" repeatCount="indefinite"/></path><path d="M3.1 89.2H10.3M6.7 85.6V92.8" stroke="#a855f7" stroke-width="2.0" stroke-linecap="round" opacity="0.46"/><path d="M1.1 74.3H8.1M4.6 70.8V77.8" stroke="#a855f7" stroke-width="1.9" stroke-linecap="round" opacity="0.42"><animate attributeName="opacity" values="0.42;0.15;0.42" dur="6.4s" begin="3.1s" repeatCount="indefinite"/></path><path d="M479.9 111.8H487.9M483.9 107.8V115.8" stroke="#47d1ff" stroke-width="2.1" stroke-linecap="round" opacity="0.57"/><path d="M640.0 62.2H648.2M644.1 58.1V66.3" stroke="#47d1ff" stroke-width="2.2" stroke-linecap="round" opacity="0.58"/><path d="M1117.4 21.8H1124.4M1120.9 18.3V25.3" stroke="#47d1ff" stroke-width="1.9" stroke-linecap="round" opacity="0.41"/></g>
<!-- LAYER 3: near. Widest orbit extent about 48 px, clockwise, 14s. -->
<g><animateMotion dur="14s" repeatCount="indefinite" path="M0,0 C 16,-9 34,-6 40,4 C 46,14 34,26 18,24 C 2,22 -8,12 -6,4 C -4.5,-1 -2.2,-1.2 0,0 Z"/><path d="M304.3 24.8H314.1M309.2 19.9V29.7" stroke="#e8eefb" stroke-width="2.7" stroke-linecap="round" opacity="0.82"><animate attributeName="opacity" values="0.82;0.30;0.82" dur="3.2s" begin="0.9s" repeatCount="indefinite"/></path><g transform="translate(1182.8,8.8)"><animateMotion dur="9s" begin="2.4s" repeatCount="indefinite" path="M0,0 C 4,-3 8,0 7,4 C 6,8 1,9 -3,7 C -7,5 -6,1 0,0 Z"/><g><animateTransform attributeName="transform" type="rotate" values="0;360" dur="24s" repeatCount="indefinite"/><path d="M-4.9 0H4.9M0 -4.9V4.9" stroke="#a855f7" stroke-width="2.8" stroke-linecap="round" opacity="0.85"/></g></g><path d="M217.4 126.4H227.2M222.3 121.5V131.3" stroke="#a855f7" stroke-width="2.7" stroke-linecap="round" opacity="0.84"/><path d="M608.3 113.6H617.5M612.9 109.0V118.2" stroke="#a855f7" stroke-width="2.6" stroke-linecap="round" opacity="0.71"><animate attributeName="opacity" values="0.71;0.26;0.71" dur="5.1s" begin="0.9s" repeatCount="indefinite"/></path><g transform="translate(189.8,108.7)"><animateMotion dur="12s" begin="6.1s" repeatCount="indefinite" path="M0,0 C -4,3 -9,2 -10,-2 C -11,-6 -6,-9 -2,-7 C 2,-5 2,-2 0,0 Z"/><path d="M-4.9 0H4.9M0 -4.9V4.9" stroke="#a855f7" stroke-width="2.7" stroke-linecap="round" opacity="0.83"/></g><g transform="translate(303.4,7.5)"><animateMotion dur="10s" begin="3.8s" repeatCount="indefinite" path="M0,0 C 5,2 9,6 6,9 C 3,12 -2,10 -4,6 C -6,2 -3,-1 0,0 Z"/><g><animateTransform attributeName="transform" type="rotate" values="0;360" dur="30s" repeatCount="indefinite"/><path d="M-4.9 0H4.9M0 -4.9V4.9" stroke="#a855f7" stroke-width="2.7" stroke-linecap="round" opacity="0.83"/></g></g><g transform="translate(1153.7,26.4)"><animateMotion dur="8.5s" begin="0.9s" repeatCount="indefinite" path="M0,0 C -3.5,-2.5 -8,-1 -8,3 C -8,7 -3,9 1,7 C 5,5 4,1 0,0 Z"/><path d="M-5.0 0H5.0M0 -5.0V5.0" stroke="#a855f7" stroke-width="2.8" stroke-linecap="round" opacity="0.88"/></g></g>
<!-- LAYER 4: counter rotating drift, so the field never slides as one sheet. -->
<g><animateMotion dur="24s" repeatCount="indefinite" path="M0,0 C -12,-8 -28,-4 -30,6 C -32,16 -20,24 -8,20 C 4,16 8,7 4,2 C 2.5,0.4 1.2,0.2 0,0 Z"/><g transform="translate(700,18)"><animateMotion dur="10s" begin="1.6s" repeatCount="indefinite" path="M0,0 C 5,2 9,6 6,9 C 3,12 -2,10 -4,6 C -6,2 -3,-1 0,0 Z"/><path d="M-4.0 0H4.0M0 -4.0V4.0" stroke="#8b5cff" stroke-width="2.0" stroke-linecap="round" opacity="0.50"/></g><path d="M876.6 101H883.4M880 97.6V104.4" stroke="#47d1ff" stroke-width="1.9" stroke-linecap="round" opacity="0.44"><animate attributeName="opacity" values="0.44;0.16;0.44" dur="4.4s" begin="2.2s" repeatCount="indefinite"/></path><path d="M1065.6 12H1074.4M1070 7.6V16.4" stroke="#a855f7" stroke-width="2.3" stroke-linecap="round" opacity="0.58"/><path d="M516.8 97H523.2M520 93.8V100.2" stroke="#3b82f6" stroke-width="1.8" stroke-linecap="round" opacity="0.36"/><g transform="translate(958,30)"><g><animateTransform attributeName="transform" type="rotate" values="0;360" dur="26s" repeatCount="indefinite"/><path d="M-4.0 0H4.0M0 -4.0V4.0" stroke="#a855f7" stroke-width="2.1" stroke-linecap="round" opacity="0.52"/></g></g><g transform="translate(762,113)"><animateMotion dur="12s" begin="5.2s" repeatCount="indefinite" path="M0,0 C -4,3 -9,2 -10,-2 C -11,-6 -6,-9 -2,-7 C 2,-5 2,-2 0,0 Z"/><path d="M-3.6 0H3.6M0 -3.6V3.6" stroke="#47d1ff" stroke-width="2.0" stroke-linecap="round" opacity="0.47"/></g></g>
<line x1="64" y1="112" x2="1136" y2="112" stroke="#4a6f96" stroke-width="1" stroke-dasharray="1 7" stroke-linecap="round" opacity="0.30"/>
<text x="64" y="44" font-family="Segoe UI, -apple-system, Helvetica, Arial, sans-serif" font-size="10.5" font-weight="600" letter-spacing="4.2" fill="#7d8798">WHO WE ARE</text>
<!-- PLACEHOLDER wordmark. The studio name is still under review, so the two words stay one text element with two tspans. -->
<text x="64" y="92" font-family="Segoe UI, -apple-system, Helvetica, Arial, sans-serif" font-size="46" font-weight="800" letter-spacing="-1.8" fill="#05070b"><tspan>The</tspan><tspan dx="13">Studio</tspan></text>
<text x="64" y="90" font-family="Segoe UI, -apple-system, Helvetica, Arial, sans-serif" font-size="46" font-weight="800" letter-spacing="-1.8"><tspan fill="#f4f6fb">The</tspan><tspan dx="13" fill="url(#stWord)">Studio</tspan></text>
</g>
<rect x="0.5" y="0.5" width="1199" height="129" rx="14" fill="none" stroke="#1b2742" stroke-width="1"/>
</svg>
